<mxfile host="app.diagrams.net" modified="2024-05-23T13:14:15.702Z" agent="Mozilla/5.0 (Macintosh; Intel Mac OS X 10_15_7) AppleWebKit/537.36 (KHTML, like Gecko) Chrome/122.0.0.0 Safari/537.36" version="24.4.6" etag="dghw91EndOlQtI3MOmuT" type="github">
  <diagram name="Page-1" id="l_CGs9vXTPsO_YQFDvr-">
    <mxGraphModel>
      <root>
        <mxCell id="0" />
        <mxCell id="1" parent="0" />
      </root>
    </mxGraphModel>
  </diagram>
</mxfile>
